# xmcd CD database file
#
# Track frame offsets:
#	150
#	15940
#	30205
#	48453
#	62123
#	85288
#	104170
#	122448
#	141131
#	154443
#	169232
#	185024
#	199576
#
# Disc length: 2885 seconds
#
# Revision: 0
# Processed by: cddbd v1.5.1PL0 Copyright (c) Steve Scherf et al.
# Submitted via: CDex 1.51
#
DISCID=ad0b430d
DTITLE=大江戸宅急便 - Destroy
DYEAR=1900
DGENRE=Game
TTITLE0=魔城ガッデムのテーマ
TTITLE1=Screem!
TTITLE2=enthusiasm -情熱-
TTITLE3=MAD Freya 〜ベンチで会いましょ〜
TTITLE4=魔境ラグナロク
TTITLE5=Snow Brand 〜like alittle snow-
TTITLE6=TransitoryPromise
TTITLE7=Color of Kakabiel
TTITLE8=Bloody Cat
TTITLE9=Petal of a Cherry
TTITLE10=花
TTITLE11=デストロイ!
TTITLE12=SkyHigh!!
EXTD=
EXTT0=
EXTT1=
EXTT2=
EXTT3=
EXTT4=
EXTT5=
EXTT6=
EXTT7=
EXTT8=
EXTT9=
EXTT10=
EXTT11=
EXTT12=
PLAYORDER=
